<svg width="144" height="142" viewBox="0 0 144 142" fill="none" xmlns="http://www.w3.org/2000/svg">
<path fill-rule="evenodd" clip-rule="evenodd" d="M140.945 24.3204C139.308 24.4034 137.66 24.4455 136.002 24.4455C111.414 24.4455 88.9851 15.2018 72.0006 0C55.0162 15.2012 32.5876 24.4445 8.00013 24.4445C6.34229 24.4445 4.69428 24.4025 3.05708 24.3194C1.06165 32.0285 0 40.1133 0 48.4462C0 93.179 30.595 130.766 72.0012 141.423C113.407 130.766 144.002 93.179 144.002 48.4462C144.002 40.1137 142.941 32.0291 140.945 24.3204ZM72.0011 122.691C103.346 112.569 126.002 83.1327 126.002 48.4462C126.002 46.2694 125.913 44.1161 125.74 41.9893C105.94 40.2201 87.5841 33.3832 72.0004 22.7956C56.4171 33.3826 38.0612 40.2192 18.2628 41.9883C18.089 44.1155 18.0003 46.2691 18.0003 48.4462C18.0003 83.1327 40.6564 112.569 72.0011 122.691Z" fill="#8B5CF6"/>
</svg>
